<svg xmlns="http://www.w3.org/2000/svg" viewBox="0 0 75 75"><defs><style>.cls-1{fill:none;}.cls-2{fill:#0f2421;}</style></defs><g id="Layer_2" data-name="Layer 2"><g id="Layer_1-2" data-name="Layer 1"><rect class="cls-1" width="75" height="75"/><path class="cls-2" d="M40.26,36.12H34.74a1.38,1.38,0,0,1,0-2.75h5.52a1.38,1.38,0,0,1,0,2.75Zm-4.34,4.76a1.35,1.35,0,0,0-1.18-.62H31.3a1.38,1.38,0,0,1-1.38-1.38V30.61a1.38,1.38,0,0,1,1.38-1.38H43.7a1.38,1.38,0,0,1,1.38,1.38v8.27a1.38,1.38,0,0,1-1.38,1.38H40.26a1.35,1.35,0,0,0-1.18.62L37.5,43.29Zm2.75,5.64L41,43H43.7a4.14,4.14,0,0,0,4.13-4.13V30.61a4.14,4.14,0,0,0-4.13-4.13H31.3a4.14,4.14,0,0,0-4.13,4.13v8.27A4.14,4.14,0,0,0,31.3,43H34l2.34,3.51a1.41,1.41,0,0,0,2.34,0Zm22.94,1.11V37a5.47,5.47,0,0,1,0,10.61ZM43,65.74A2.76,2.76,0,1,1,45.77,63,2.76,2.76,0,0,1,43,65.74ZM58.86,50.59a2.07,2.07,0,1,1-4.14,0V34.06a2.07,2.07,0,0,1,4.14,0ZM18.21,32a2,2,0,0,1,2.07,2.07V50.59a2.07,2.07,0,0,1-4.14,0V34.06A2,2,0,0,1,18.21,32ZM13.39,47.63a5.54,5.54,0,0,1-4.13-5.31A5.47,5.47,0,0,1,13.39,37ZM61.61,34.19V30.61a24.11,24.11,0,0,0-48.22,0v3.58a8.24,8.24,0,0,0,0,16.26v.14a4.82,4.82,0,0,0,9.64,0V34.06a4.79,4.79,0,0,0-4.82-4.83,4.11,4.11,0,0,0-2.07.49,21.38,21.38,0,0,1,42.72,0,5,5,0,0,0-2.07-.49A4.79,4.79,0,0,0,52,34.06V50.59a4.82,4.82,0,1,0,9.64,0v-.14a8.18,8.18,0,0,0,4.13-2v.76a12.44,12.44,0,0,1-12.4,12.4h-5a5.51,5.51,0,1,0,0,2.76h5A15.2,15.2,0,0,0,68.5,49.21V42.32A8.23,8.23,0,0,0,61.61,34.19Z"/></g></g></svg>