<svg xmlns="http://www.w3.org/2000/svg" xmlns:xlink="http://www.w3.org/1999/xlink" viewBox="0 0 75 75"><defs><style>.cls-1,.cls-2{fill:none;}.cls-1{clip-rule:evenodd;}.cls-3{fill:#0f2421;}.cls-4{clip-path:url(#clip-path);}.cls-5{fill:#fff;}</style><clipPath id="clip-path"><path class="cls-1" d="M60.68,52.6l-8.36,2.7V45.89a2.16,2.16,0,0,0-2.18-2.18A2.09,2.09,0,0,0,48,45.89V56.78l-8.36,2.7V30.72l21-6.88ZM37.5,26.89,31.57,25l4.19-1.48a2.16,2.16,0,0,0,1.3-2.79,2.24,2.24,0,0,0-2.78-1.31L25,22.79l-5.84-1.91,18.39-6,18.39,6ZM35.32,59.48l-21-6.88V23.84l8.36,2.7v16.3a2.18,2.18,0,0,0,4.36,0V28l8.37,2.7V59.48Zm28.24-40.7L38.2,10.51a1.88,1.88,0,0,0-1.4,0L11.44,18.78A2.19,2.19,0,0,0,10,20.88V54.17a2.26,2.26,0,0,0,1.48,2.09L36.8,64.54a3.1,3.1,0,0,0,1.4,0l25.36-8.37A2.17,2.17,0,0,0,65,54.08V20.88A2.27,2.27,0,0,0,63.56,18.78Z"/></clipPath></defs><g id="Layer_2" data-name="Layer 2"><g id="Layer_1-2" data-name="Layer 1"><rect class="cls-2" width="75" height="75"/><path class="cls-3" d="M60.68,52.6l-8.36,2.7V45.89a2.16,2.16,0,0,0-2.18-2.18A2.09,2.09,0,0,0,48,45.89V56.78l-8.36,2.7V30.72l21-6.88ZM37.5,26.89,31.57,25l4.19-1.48a2.16,2.16,0,0,0,1.3-2.79,2.24,2.24,0,0,0-2.78-1.31L25,22.79l-5.84-1.91,18.39-6,18.39,6ZM35.32,59.48l-21-6.88V23.84l8.36,2.7v16.3a2.18,2.18,0,0,0,4.36,0V28l8.37,2.7V59.48Zm28.24-40.7L38.2,10.51a1.88,1.88,0,0,0-1.4,0L11.44,18.78A2.19,2.19,0,0,0,10,20.88V54.17a2.26,2.26,0,0,0,1.48,2.09L36.8,64.54a3.1,3.1,0,0,0,1.4,0l25.36-8.37A2.17,2.17,0,0,0,65,54.08V20.88A2.27,2.27,0,0,0,63.56,18.78Z"/><g class="cls-4"><path class="cls-5" d="M59.68,23.84V52.6h2V23.84ZM40,31.67l21-6.88-.62-1.9-21,6.88Zm.69,27.81V30.72h-2V59.48Zm7.06-3.65-8.37,2.7.62,1.9,8.36-2.7ZM47,45.89V56.78h2V45.89Zm3.1-3.18A3.09,3.09,0,0,0,47,45.89h2a1.09,1.09,0,0,1,1.1-1.18Zm3.18,3.18a3.16,3.16,0,0,0-3.18-3.18v2a1.16,1.16,0,0,1,1.18,1.18Zm0,9.41V45.89h-2V55.3Zm7-3.65L52,54.35l.61,1.9L61,53.55ZM55.58,19.93l-18.39,6,.62,1.9,18.39-6ZM37.19,15.81l18.39,6,.62-1.9-18.39-6Zm-17.77,6,18.39-6-.62-1.9-18.39,6Zm5.84,0-5.84-1.91-.62,1.9,5.84,1.91Zm8.67-3.38-9.32,3.39.68,1.88,9.33-3.4ZM38,20.34a3.24,3.24,0,0,0-4-1.9l.59,1.91a1.24,1.24,0,0,1,1.56.71Zm-1.88,4.08A3.17,3.17,0,0,0,38,20.34l-1.87.72a1.16,1.16,0,0,1-.73,1.5Zm-4.21,1.49,4.18-1.48-.67-1.88L31.24,24Zm5.9,0L31.88,24l-.61,1.9,5.92,1.92Zm-2.4,32.54h-.09v2h.09Zm-1-27.76V59.48h2V30.72ZM26.73,29l8.37,2.71.62-1.91-8.37-2.7ZM28,42.84V28H26V42.84ZM24.86,46A3.16,3.16,0,0,0,28,42.84H26A1.16,1.16,0,0,1,24.86,44Zm-3.18-3.18A3.16,3.16,0,0,0,24.86,46V44a1.16,1.16,0,0,1-1.18-1.18Zm0-16.3v16.3h2V26.54ZM14,24.79l8.37,2.7.61-1.9-8.36-2.7ZM15.32,52.6V23.84h-2V52.6Zm20.31,5.93-21-6.88L14,53.55l21,6.88ZM66,20.88a3.26,3.26,0,0,0-2.11-3l-.74,1.85A1.27,1.27,0,0,1,64,20.88Zm0,33.2V20.88H64v33.2Zm-2.2,3.05A3.17,3.17,0,0,0,66,54.08H64a1.17,1.17,0,0,1-.77,1.13ZM38.51,65.49l25.36-8.37-.63-1.9L37.88,63.59Zm-1,.13a2.87,2.87,0,0,0,1-.13l-.63-1.9-.13,0H37.5Zm-1-.13a2.87,2.87,0,0,0,1,.13v-2h-.25l-.13,0ZM11.13,57.21l25.36,8.28.62-1.9L11.75,55.31ZM9,54.17a3.26,3.26,0,0,0,2.11,3l.74-1.86A1.27,1.27,0,0,1,11,54.17ZM9,20.88V54.17h2V20.88Zm2.2-3.05A3.17,3.17,0,0,0,9,20.88h2a1.19,1.19,0,0,1,.77-1.14ZM36.49,9.56,11.13,17.83l.62,1.91,25.36-8.28Zm2.08,0a2.87,2.87,0,0,0-2.08,0l.63,1.89a1,1,0,0,1,.71,0Zm25.3,8.25L38.51,9.56l-.62,1.9,25.36,8.28Zm-3.19,6h1V22.46l-1.31.43Zm-21,6.88-.31-.95-.69.23v.72Zm0,28.76h-1v1.38L40,60.43ZM48,56.78l.31.95.69-.22v-.73Zm4.28-1.48h-1v1.37l1.3-.42Zm8.36-2.7.31.95.69-.22V52.6ZM55.89,20.88l.31.95,2.91-.95-2.91-.95Zm-18.39-6,.31-.95-.31-.1-.31.1Zm-18.39,6-.31-.95-2.9.94,2.9,1ZM25,22.79l-.31.95.33.11.32-.12Zm9.33-3.4-.3-.95h0Zm1.48,4.1.33.94h0ZM31.57,25,31.24,24l-2.78,1,2.81.9Zm5.93,1.92-.31.95.31.1.31-.1ZM35.41,59.48v1h1v-1Zm0-28.76h1V30l-.69-.23ZM27,28l.31-.95L26,26.65V28Zm-4.36-1.48h1v-.73L23,25.59Zm-8.36-2.7.31-.95-1.31-.42v1.37Zm0,28.76h-1v.72l.69.23Zm21,6.88-.31,1,.15,0h.16ZM65,20.88h0ZM63.56,56.17l-.29-1h0ZM38.2,64.54l-.32-1h0Zm-1.4,0,.32-1h0ZM11.44,56.26l-.37.93h.06Zm0-37.48.29,1h0ZM36.8,10.51l.31,1h0Zm1.4,0-.37.92,0,0h0Zm25.36,8.27.37-.92,0,0h0Z"/></g></g></g></svg>