<svg xmlns="http://www.w3.org/2000/svg" viewBox="0 0 75 75"><defs><style>.cls-1{fill:none;}.cls-2{fill:#0f2421;}</style></defs><g id="Layer_2" data-name="Layer 2"><g id="Layer_1-2" data-name="Layer 1"><rect class="cls-1" width="75" height="75"/><path class="cls-2" d="M62.87,62.84H12.19V60.35H62.87ZM43.76,49.46H45a.83.83,0,0,0,0-1.66H43.76V38.66H54.64v20H43.76ZM15.43,32.6a4.77,4.77,0,0,0,3.41-1.91,4.27,4.27,0,0,0,3.74,1.91,4.67,4.67,0,0,0,3.74-1.91A4.58,4.58,0,0,0,30,32.6h.08a4.64,4.64,0,0,0,3.74-1.91,4.6,4.6,0,0,0,3.66,1.91h.08a4.75,4.75,0,0,0,3.74-1.91,4.38,4.38,0,0,0,3.65,1.91H45a4.66,4.66,0,0,0,3.74-1.91A4.49,4.49,0,0,0,52.4,32.6h.08a4.64,4.64,0,0,0,3.74-1.91,4.51,4.51,0,0,0,3.41,1.91V58.68H56.31V37.83a.79.79,0,0,0-.83-.83H42.93a.78.78,0,0,0-.83.83V58.68H15.43ZM12.19,28V25.12H18V28a3,3,0,0,1-2.91,2.91H15A2.88,2.88,0,0,1,12.19,28ZM20,13.82a1.67,1.67,0,0,1,1.66-1.66H53.48a1.66,1.66,0,0,1,1.66,1.66v1.25H20Zm5.73,9.64h-5.4l4.49-6.73h3.57Zm7.31,0H27.56l2.66-6.73H34Zm6.4-6.73.92,6.73H34.79l.83-6.73Zm5.4,0,2.66,6.73H42l-.75-5.73-.17-1Zm5.4,0,4.49,6.73h-5.4l-2.66-6.73Zm11.55,6.73H56.64l-4.4-6.73h3.32ZM19.5,16.73h3.33l-4.41,6.73H13.27Zm3.08,14.21A3,3,0,0,1,19.67,28V25.12h5.81V28A2.94,2.94,0,0,1,22.58,30.94Zm7.47,0A2.94,2.94,0,0,1,27.15,28V25.12H33V28A2.89,2.89,0,0,1,30.05,30.94Zm7.48,0A3,3,0,0,1,34.62,28V25.12h5.82V28A2.89,2.89,0,0,1,37.53,30.94Zm7.48,0A3,3,0,0,1,42.1,28V25.12h5.82V28A3,3,0,0,1,45,30.94Zm7.47,0A2.94,2.94,0,0,1,49.58,28V25.12h5.81V28A2.89,2.89,0,0,1,52.48,30.94Zm6.32-.25c-2.24-1-1.66-3.49-1.75-5.57h5.82V28A2.92,2.92,0,0,1,58.8,30.69Zm4.9,28H61.29V32.43A4.55,4.55,0,0,0,64.53,28V24.46a.73.73,0,0,0-.33-.83l-7.48-8.06V13.82A3.33,3.33,0,0,0,53.4,10.5H21.58a3.33,3.33,0,0,0-3.32,3.32v1.75c-8.14,8.8-7.65,8.22-7.73,8.39a2,2,0,0,1-.08.33V28a4.55,4.55,0,0,0,3.24,4.4V58.68H11.36a.79.79,0,0,0-.83.84v4.15a.78.78,0,0,0,.83.83H63.7a.78.78,0,0,0,.83-.83V59.52A.84.84,0,0,0,63.7,58.68Z"/><path class="cls-2" d="M29.22,50.13v-4.9h5.49v4.9Zm-7.14-4.9h5.48v4.9H22.08Zm5.48-6.57v4.9H22.08v-4.9Zm7.23,4.9H29.31v-4.9h5.48ZM35.62,37H21.25a.78.78,0,0,0-.83.83V51a.78.78,0,0,0,.83.83H35.54a.78.78,0,0,0,.83-.83V37.83A.72.72,0,0,0,35.62,37Z"/></g></g></svg>