<svg xmlns="http://www.w3.org/2000/svg" viewBox="0 0 93 14.04"><defs><style>.cls-1{fill:#fff;}</style></defs><g id="Layer_2" data-name="Layer 2"><g id="Layer_1-2" data-name="Layer 1"><polygon class="cls-1" points="11.85 13.82 8.46 13.82 4.59 8.01 2.86 10.03 2.86 13.78 0 13.78 0 0.18 2.9 0.18 2.9 5.81 7.6 0.18 11.28 0.18 6.51 5.77 11.85 13.82"/><path class="cls-1" d="M24.67,8.89,22.79,4.56,20.91,8.89Zm2.14,4.93-1.12-2.61H19.86l-1.17,2.61H15.53l6-13.6h2.41l6,13.6Z"/><polygon class="cls-1" points="43.85 11.32 43.85 13.82 34.9 13.82 34.9 0.22 37.79 0.22 37.79 11.32 43.85 11.32"/><path class="cls-1" d="M51.07,7a4.31,4.31,0,1,0,8.61,0c0-2.83-1.77-4.52-4.29-4.52S51.07,4.19,51.07,7ZM62.61,7c0,4.26-3.08,7-7.22,7s-7.22-2.72-7.22-7,3-7,7.22-7S62.61,2.72,62.61,7Z"/><path class="cls-1" d="M78.18,4.19l-2.93.15a1.89,1.89,0,0,0-2.14-1.88c-1.32,0-2.07.66-2.07,1.66s.79,1.32,2.71,1.76c2.85.7,4.73,1.58,4.73,4,0,2.91-2.33,4.16-5.11,4.16-3.23,0-5.53-1.55-5.57-4.38l2.94-.14c0,1.25,1.16,2.05,2.67,2.05,1.28,0,2.18-.44,2.18-1.57s-1-1.44-2.86-1.88c-2.52-.62-4.59-1.32-4.59-4C68.07,1.91,69.68,0,73,0,76,0,78.11,1.58,78.18,4.19Z"/><polygon class="cls-1" points="86.94 2.68 86.94 5.62 92.21 5.62 92.21 8.05 86.94 8.05 86.94 11.32 93 11.32 93 13.82 84.05 13.82 84.05 0.22 93 0.22 93 2.68 86.94 2.68"/></g></g></svg>